<svg xmlns="http://www.w3.org/2000/svg" xmlns:xlink="http://www.w3.org/1999/xlink" viewBox="0 0 1080 1080" width="1080" height="1080" preserveAspectRatio="xMidYMid meet" style="width: 100%; height: 100%;  content-visibility: visible;"><defs><clipPath id="__lottie_element_2"><rect width="1080" height="1080" x="0" y="0"></rect></clipPath></defs><g clip-path="url(#__lottie_element_2)"><g transform="matrix(1,0,0,1,107,104)" opacity="1" style="display: block;"><g opacity="1" transform="matrix(1,0,0,1,667.8759765625,211.13299560546875)"><path stroke-linecap="round" stroke-linejoin="round" fill-opacity="0" stroke="rgb(237,56,78)" stroke-opacity="1" stroke-width="20" d="M0 0"></path></g><g opacity="1" transform="matrix(1,0,0,1,495.1310119628906,461.82000732421875)"><path stroke-linecap="round" stroke-linejoin="round" fill-opacity="0" stroke="rgb(237,56,78)" stroke-opacity="1" stroke-width="20" d="M0 0"></path></g><g opacity="1" transform="matrix(0,0,0,0,735.718017578125,230.5749969482422)"><path fill="rgb(237,56,78)" fill-opacity="1" d=" M-16.910999298095703,21.43899917602539 C-34.9010009765625,-10.3100004196167 -55.058998107910156,-31.579999923706055 -34.159000396728516,-72.84500122070312 C-29.591999053955078,-81.86100006103516 -26.80299949645996,-104.3740005493164 -16.72800064086914,-103.57099914550781 C-9.942000389099121,-103.03099822998047 4.27400016784668,-99.4260025024414 10.315999984741211,-89.50800323486328 C25.573999404907227,-64.46700286865234 57.49300003051758,-37.7599983215332 5.551000118255615,-0.31200000643730164 C-4.443999767303467,6.894000053405762 -10.836000442504883,32.15999984741211 -16.910999298095703,21.43899917602539z"></path></g><g opacity="1" transform="matrix(0,0,0,0,98.27200317382812,11.5600004196167)"><path fill="rgb(237,56,78)" fill-opacity="1" d=" M-37.15299987792969,18.808000564575195 C-61.290000915527344,-8.560999870300293 -57.02799987792969,-13.154000282287598 -45.06399917602539,-57.834999084472656 C-42.45000076293945,-67.5979995727539 -19.55500030517578,-69.05899810791016 -9.529999732971191,-70.34600067138672 C-2.7780001163482666,-71.21299743652344 15.565999984741211,-68.32499694824219 24.520999908447266,-60.93000030517578 C55.83300018310547,-35.073001861572266 23.138999938964844,-17.218000411987305 -0.3050000071525574,2.4509999752044678 C-9.744999885559082,10.371000289916992 -29.003000259399414,28.048999786376953 -37.15299987792969,18.808000564575195z"></path></g><g opacity="1" transform="matrix(0,0,0,0,-64.13899993896484,661.6610107421875)"><path fill="rgb(237,56,78)" fill-opacity="1" d=" M4.063000202178955,-17.69700050354004 C0.33899998664855957,-28.56999969482422 1.4910000562667847,-31.441999435424805 -17.97599983215332,-35.9900016784668 C-26.81100082397461,-38.05400085449219 -45.858001708984375,-38.05400085449219 -52.07600021362305,-26.631999969482422 C-54.99800109863281,-21.264999389648438 -63.645999908447266,-9.310999870300293 -55.564998626708984,-2.7230000495910645 C-31.749000549316406,16.69300079345703 -62.715999603271484,18.274999618530273 -0.10199999809265137,10.062000274658203 C10.866000175476074,8.623000144958496 7.61299991607666,-7.331999778747559 4.063000202178955,-17.69700050354004z"></path></g><g opacity="1" transform="matrix(1,0,0,1,282.0979919433594,17.802000045776367)"><path fill="rgb(237,56,78)" fill-opacity="1" d=" M17.80299949645996,0 C17.80299949645996,9.831999778747559 9.833000183105469,17.802000045776367 0.0010000000474974513,17.802000045776367 C-9.831000328063965,17.802000045776367 -17.802000045776367,9.831999778747559 -17.802000045776367,0 C-17.802000045776367,-9.831999778747559 -9.831000328063965,-17.80299949645996 0.0010000000474974513,-17.80299949645996 C9.833000183105469,-17.80299949645996 17.80299949645996,-9.831999778747559 17.80299949645996,0z"></path></g><g opacity="1" transform="matrix(0.04918999969959259,0,0,0.04918999969959259,335.54901123046875,46.88999938964844)"><path fill="rgb(237,56,78)" fill-opacity="1" d=" M25.15999984741211,-0.0010000000474974513 C25.15999984741211,13.895000457763672 13.895000457763672,25.15999984741211 0,25.15999984741211 C-13.895000457763672,25.15999984741211 -25.159000396728516,13.895000457763672 -25.159000396728516,-0.0010000000474974513 C-25.159000396728516,-13.895999908447266 -13.895000457763672,-25.15999984741211 0,-25.15999984741211 C13.895000457763672,-25.15999984741211 25.15999984741211,-13.895999908447266 25.15999984741211,-0.0010000000474974513z"></path></g><g opacity="1" transform="matrix(0,0,0,0,360.7080078125,108.78900146484375)"><path fill="rgb(237,56,78)" fill-opacity="1" d=" M18.611000061035156,-0.0010000000474974513 C18.611000061035156,10.277000427246094 10.277000427246094,18.611000061035156 0,18.611000061035156 C-10.279000282287598,18.611000061035156 -18.611000061035156,10.277000427246094 -18.611000061035156,-0.0010000000474974513 C-18.611000061035156,-10.279000282287598 -10.279000282287598,-18.611000061035156 0,-18.611000061035156 C10.277000427246094,-18.611000061035156 18.611000061035156,-10.279000282287598 18.611000061035156,-0.0010000000474974513z"></path></g></g><g transform="matrix(0.9981500506401062,0.06079848110675812,-0.06079848110675812,0.9981500506401062,826.2117919921875,418.1302185058594)" opacity="1" style="display: block;"><g opacity="1" transform="matrix(1,0,0,1,33.939998626708984,167.04100036621094)"><path stroke-linecap="round" stroke-linejoin="miter" fill-opacity="0" stroke-miterlimit="10" stroke="rgb(0,0,0)" stroke-opacity="1" stroke-width="5.669" d=" M-30.135000228881836,86.37699890136719 C-30.135000228881836,86.37699890136719 -36.21467971801758,8.039613723754883 45.43199920654297,-86.37699890136719"></path></g><g opacity="1" transform="matrix(1,0,0,1,54.305999755859375,208.0780029296875)"><path stroke-linecap="round" stroke-linejoin="miter" fill-opacity="0" stroke-miterlimit="10" stroke="rgb(0,0,0)" stroke-opacity="1" stroke-width="5.669" d=" M-50.500999450683594,45.3390007019043 C-50.500999450683594,45.3390007019043 -47.86800003051758,-8.579999923706055 50.500999450683594,-45.34000015258789"></path></g><g opacity="1" transform="matrix(1,0,0,1,93.97799682617188,184.85499572753906)"><path stroke-linecap="round" stroke-linejoin="miter" fill-opacity="0" stroke-miterlimit="10" stroke="rgb(0,0,0)" stroke-opacity="1" stroke-width="5.669" d=" M-21.214000701904297,-6.577000141143799 C-21.214000701904297,-6.577000141143799 -9.708999633789062,-8.87600040435791 21.214000701904297,8.875"></path></g><g opacity="1" transform="matrix(1,0,0,1,120.47000122070312,50.49799728393555)"><path fill="rgb(0,0,0)" fill-opacity="1" d=" M50.492000579833984,-46.36399841308594 C47.2400016784668,-49.04800033569336 42.560001373291016,-50.4379997253418 36.58399963378906,-50.494998931884766 C36.13800048828125,-50.50199890136719 35.691001892089844,-50.499000549316406 35.244998931884766,-50.4900016784668 C15.928000450134277,-50.117000579833984 -3.1640000343322754,-37.4640007019043 -21.530000686645508,-12.859000205993652 C-35.48099899291992,5.8420000076293945 -47.222999572753906,26.690000534057617 -57.15999984741211,50.49800109863281 C-50.70899963378906,43.6619987487793 -42.99599838256836,37.25699996948242 -34.275001525878906,31.538000106811523 C-22.31999969482422,23.702999114990234 -9.324000358581543,17.35300064086914 3.240000009536743,11.210000038146973 C13.022000312805176,6.422999858856201 23.145999908447266,1.4780000448226929 32.632999420166016,-4.110000133514404 C40.327999114990234,-8.642000198364258 48.790000915527344,-14.392999649047852 53.207000732421875,-22.674999237060547 C57.111000061035156,-29.989999771118164 57.15999984741211,-40.849998474121094 50.492000579833984,-46.36399841308594z M30.910999298095703,-22.274999618530273 C26.84600067138672,-22.274999618530273 23.551000595092773,-25.570999145507812 23.551000595092773,-29.635000228881836 C23.551000595092773,-33.70100021362305 26.84600067138672,-36.99599838256836 30.910999298095703,-36.99599838256836 C34.97600173950195,-36.99599838256836 38.270999908447266,-33.70100021362305 38.270999908447266,-29.635000228881836 C38.270999908447266,-25.570999145507812 34.97600173950195,-22.274999618530273 30.910999298095703,-22.274999618530273z"></path></g><g opacity="1" transform="matrix(1,0,0,1,136.7969970703125,150.9409942626953)"><path fill="rgb(0,0,0)" fill-opacity="1" d=" M68.7300033569336,-11.649999618530273 C66.94000244140625,-15.468999862670898 63.30500030517578,-18.72599983215332 57.928001403808594,-21.334999084472656 C57.52799987792969,-21.531999588012695 57.12300109863281,-21.72100067138672 56.715999603271484,-21.90399932861328 C39.09700012207031,-29.83300018310547 16.427000045776367,-26.56599998474121 -10.701000213623047,-12.184000015258789 C-31.312999725341797,-1.2519999742507935 -50.84600067138672,12.565999984741211 -70.01499938964844,29.83300018310547 C-61.257999420166016,26.413999557495117 -51.547000885009766,23.926000595092773 -41.21799850463867,22.48900032043457 C-27.05900001525879,20.523000717163086 -12.597000122070312,20.3439998626709 1.3880000114440918,20.167999267578125 C12.277999877929688,20.025999069213867 23.542999267578125,19.889999389648438 34.5099983215332,18.89900016784668 C43.40399932861328,18.094999313354492 53.513999938964844,16.51799964904785 61.04899978637695,10.92199993133545 C67.70700073242188,5.980999946594238 72.39800262451172,-3.813999891281128 68.7300033569336,-11.649999618530273z M39.11800003051758,6.086999893188477 C35.053001403808594,6.086999893188477 31.757999420166016,2.7909998893737793 31.757999420166016,-1.2730000019073486 C31.757999420166016,-5.339000225067139 35.053001403808594,-8.633999824523926 39.11800003051758,-8.633999824523926 C43.18299865722656,-8.633999824523926 46.47800064086914,-5.339000225067139 46.47800064086914,-1.2730000019073486 C46.47800064086914,2.7909998893737793 43.18299865722656,6.086999893188477 39.11800003051758,6.086999893188477z"></path></g><g opacity="1" transform="matrix(1,0,0,1,118.8270034790039,203.33099365234375)"><path fill="rgb(0,0,0)" fill-opacity="1" d=" M42.939998626708984,8.173999786376953 C42.83399963378906,7.88700008392334 42.720001220703125,7.605000019073486 42.604000091552734,7.322999954223633 C37.55699920654297,-4.877999782562256 24.75200080871582,-13.878000259399414 4.519999980926514,-19.44099998474121 C-10.854000091552734,-23.663999557495117 -27.045000076293945,-25.94700050354004 -44.672000885009766,-26.343000411987305 C-38.71500015258789,-23.940000534057617 -32.71900177001953,-20.625 -26.908000946044922,-16.499000549316406 C-18.94499969482422,-10.840999603271484 -11.668000221252441,-4.1519999504089355 -4.63100004196167,2.315000057220459 C0.8510000109672546,7.3480000495910645 6.51800012588501,12.5600004196167 12.435999870300293,17.207000732421875 C17.236000061035156,20.97599983215332 23.003000259399414,24.93000030517578 29.374000549316406,25.679000854492188 C35.000999450683594,26.343000411987305 41.92399978637695,23.670000076293945 43.77299880981445,18.05299949645996 C44.672000885009766,15.3149995803833 44.39099884033203,11.991999626159668 42.939998626708984,8.173999786376953z M27.645999908447266,15.031999588012695 C24.259000778198242,15.031999588012695 21.51300048828125,12.28600025177002 21.51300048828125,8.89900016784668 C21.51300048828125,5.511000156402588 24.259000778198242,2.765000104904175 27.645999908447266,2.765000104904175 C31.034000396728516,2.765000104904175 33.779998779296875,5.511000156402588 33.779998779296875,8.89900016784668 C33.779998779296875,12.28600025177002 31.034000396728516,15.031999588012695 27.645999908447266,15.031999588012695z"></path></g></g><g transform="matrix(1,0,0,1,72.01803588867188,170.4119873046875)" opacity="1" style="display: block;"><g opacity="1" transform="matrix(1,0,0,1,451.7460021972656,481.3479919433594)"><path fill="rgb(0,0,0)" fill-opacity="1" d=" M439.9590148925781,74.12100219726562 C439.9599914550781,74.1050033569336 439.9590148925781,74.09100341796875 439.9590148925781,74.07499694824219 C439.9590148925781,74.07499694824219 439.9580078125,73.89900207519531 439.9580078125,73.89900207519531 C439.9580078125,73.89900207519531 439.9530029296875,73.89800262451172 439.9530029296875,73.89800262451172 C439.9230041503906,63.88999938964844 433.4549865722656,53.89500045776367 420.5090026855469,46.25600051879883 C420.5090026855469,46.25600051879883 -99.70600128173828,-258.60699462890625 -99.70600128173828,-258.60699462890625 C-125.73999786376953,-273.9700012207031 -168.13400268554688,-273.9630126953125 -194.33599853515625,-258.59100341796875 C-194.33599853515625,-258.59100341796875 -420.3330078125,-125.96900177001953 -420.3330078125,-125.96900177001953 C-433.5190124511719,-118.23200225830078 -440.0950012207031,-108.06900024414062 -440.0639953613281,-97.92500305175781 C-440.0639953613281,-97.92500305175781 -440.07000732421875,-97.9260025024414 -440.07000732421875,-97.9260025024414 C-440.07000732421875,-97.9260025024414 -439.9679870605469,-73.9260025024414 -439.9679870605469,-73.9260025024414 C-439.93701171875,-63.90999984741211 -433.4590148925781,-53.9109992980957 -420.5270080566406,-46.277000427246094 C-420.5270080566406,-46.277000427246094 99.68800354003906,258.5849914550781 99.68800354003906,258.5849914550781 C125.76000213623047,273.968994140625 168.11599731445312,273.94000244140625 194.3159942626953,258.5679931640625 C194.3159942626953,258.5679931640625 420.31500244140625,125.94200134277344 420.31500244140625,125.94200134277344 C433.50201416015625,118.20500183105469 440.0950012207031,108.0459976196289 440.0660095214844,97.89900207519531 C440.0660095214844,97.89900207519531 439.9590148925781,74.12100219726562 439.9590148925781,74.12100219726562z"></path></g><g opacity="1" transform="matrix(1,0,0,1,450.8219909667969,468.1969909667969)"><path fill="rgb(249,174,64)" fill-opacity="1" d=" M190.62600708007812,240.31500244140625 C190.62600708007812,240.31500244140625 422.0050048828125,104.53800201416016 422.0050048828125,104.53800201416016 C436.17498779296875,96.22200012207031 436.1719970703125,75.43800354003906 421.99798583984375,67.12799835205078 C421.99798583984375,67.12799835205078 -102.70700073242188,-240.54100036621094 -102.70700073242188,-240.54100036621094 C-129.0260009765625,-255.9739990234375 -161.447998046875,-255.9709930419922 -187.76400756835938,-240.5330047607422 C-187.76400756835938,-240.5330047607422 -223.58900451660156,-219.51499938964844 -223.58900451660156,-219.51499938964844 C-224.30299377441406,-219.0970001220703 -224.8939971923828,-218.49000549316406 -225.29800415039062,-217.75999450683594 C-225.29800415039062,-217.75999450683594 -242.1739959716797,-187.3159942626953 -242.1739959716797,-187.3159942626953 C-242.76100158691406,-186.25799560546875 -243.61599731445312,-185.37899780273438 -244.6510009765625,-184.77200317382812 C-244.6510009765625,-184.77200317382812 -315.0950012207031,-143.4239959716797 -315.0950012207031,-143.4239959716797 C-315.8370056152344,-142.98800659179688 -316.65899658203125,-142.71099853515625 -317.510986328125,-142.61099243164062 C-317.510986328125,-142.61099243164062 -362.3009948730469,-137.29100036621094 -362.3009948730469,-137.29100036621094 C-363.4440002441406,-137.15499877929688 -364.54998779296875,-136.78500366210938 -365.5469970703125,-136.19900512695312 C-365.5469970703125,-136.19900512695312 -423.8240051269531,-102.00700378417969 -423.8240051269531,-102.00700378417969 C-436.17498779296875,-94.76000213623047 -436.1730041503906,-76.64700317382812 -423.82000732421875,-69.40399932861328 C-423.82000732421875,-69.40399932861328 104.40299987792969,240.33099365234375 104.40299987792969,240.33099365234375 C131.08299255371094,255.97500610351562 163.9510040283203,255.968994140625 190.62600708007812,240.31500244140625z"></path></g><g opacity="1" transform="matrix(1,0,0,1,165.63299560546875,291.1600036621094)"><path fill="rgb(255,255,255)" fill-opacity="1" d=" M19.476999282836914,-16.200000762939453 C19.476999282836914,-16.200000762939453 -27.613000869750977,11.428999900817871 -27.613000869750977,11.428999900817871 C-30.207000732421875,12.951000213623047 -30.48699951171875,15.251999855041504 -28.239999771118164,16.56999969482422 C-25.993000030517578,17.886999130249023 -22.06999969482422,17.722000122070312 -19.47599983215332,16.201000213623047 C-19.47599983215332,16.201000213623047 27.613000869750977,-11.428000450134277 27.613000869750977,-11.428000450134277 C30.207000732421875,-12.949999809265137 30.48699951171875,-15.253000259399414 28.239999771118164,-16.56999969482422 C25.993999481201172,-17.88800048828125 22.070999145507812,-17.72100067138672 19.476999282836914,-16.200000762939453z"></path></g><g opacity="1" transform="matrix(1,0,0,1,93.74199676513672,463.84100341796875)"><path fill="rgb(255,255,255)" fill-opacity="1" d=" M28.18000030517578,10.85200023651123 C27.731000900268555,9.505999565124512 27.051000595092773,8.187000274658203 26.214000701904297,7.025000095367432 C25.267000198364258,5.706999778747559 24.117000579833984,4.5929999351501465 22.886999130249023,3.874000072479248 C22.886999130249023,3.874000072479248 -20.34600067138672,-21.479000091552734 -20.34600067138672,-21.479000091552734 C-21.968000411987305,-22.423999786376953 -23.43000030517578,-22.514999389648438 -24.489999771118164,-21.899999618530273 C-24.489999771118164,-21.899999618530273 -28.770000457763672,-19.402000427246094 -28.770000457763672,-19.402000427246094 C-27.711000442504883,-20.020000457763672 -26.24799919128418,-19.93000030517578 -24.625999450683594,-18.985000610351562 C-24.625999450683594,-18.985000610351562 18.607999801635742,6.36899995803833 18.607999801635742,6.36899995803833 C19.836999893188477,7.086999893188477 20.986000061035156,8.20300006866455 21.93400001525879,9.520999908447266 C22.770000457763672,10.682000160217285 23.450000762939453,12 23.898000717163086,13.347000122070312 C24.277999877929688,14.479000091552734 24.492000579833984,15.631999969482422 24.492000579833984,16.719999313354492 C24.492000579833984,16.719999313354492 24.492000579833984,18.62299919128418 24.492000579833984,18.62299919128418 C24.492000579833984,20.53700065612793 23.820999145507812,21.88800048828125 22.742000579833984,22.516000747680664 C22.742000579833984,22.516000747680664 27.020000457763672,20.020000457763672 27.020000457763672,20.020000457763672 C28.10099983215332,19.392000198364258 28.770000457763672,18.041000366210938 28.770000457763672,16.12700080871582 C28.770000457763672,16.12700080871582 28.770000457763672,14.225000381469727 28.770000457763672,14.225000381469727 C28.770000457763672,13.13599967956543 28.558000564575195,11.984999656677246 28.18000030517578,10.85200023651123z"></path></g><g opacity="1" transform="matrix(1,0,0,1,90.73400115966797,465.3970031738281)"><path fill="rgb(0,0,0)" fill-opacity="1" d=" M21.617000579833984,4.810999870300293 C21.617000579833984,4.810999870300293 -21.618000030517578,-20.542999267578125 -21.618000030517578,-20.542999267578125 C-24.88599967956543,-22.44499969482422 -27.499000549316406,-20.888999938964844 -27.496999740600586,-17.045000076293945 C-27.496999740600586,-17.045000076293945 -27.496999740600586,-15.142999649047852 -27.496999740600586,-15.142999649047852 C-27.496999740600586,-11.338000297546387 -24.884000778198242,-6.695000171661377 -21.614999771118164,-4.793000221252441 C-21.614999771118164,-4.793000221252441 21.6200008392334,20.56100082397461 21.6200008392334,20.56100082397461 C24.851999282836914,22.444000244140625 27.5,20.8700008392334 27.5,17.065000534057617 C27.5,17.065000534057617 27.5,15.163000106811523 27.5,15.163000106811523 C27.5,11.317000389099121 24.847999572753906,6.697000026702881 21.617000579833984,4.810999870300293z"></path></g><g opacity="1" transform="matrix(1,0,0,1,162.43899536132812,504.322998046875)"><path fill="rgb(255,255,255)" fill-opacity="1" d=" M28.179000854492188,10.85099983215332 C27.731000900268555,9.505000114440918 27.049999237060547,8.185999870300293 26.21299934387207,7.02400016784668 C25.266000747680664,5.705999851226807 24.117000579833984,4.5920000076293945 22.886999130249023,3.872999906539917 C22.886999130249023,3.872999906539917 -20.34600067138672,-21.479999542236328 -20.34600067138672,-21.479999542236328 C-21.9689998626709,-22.424999237060547 -23.430999755859375,-22.514999389648438 -24.490999221801758,-21.900999069213867 C-24.490999221801758,-21.900999069213867 -28.770000457763672,-19.402999877929688 -28.770000457763672,-19.402999877929688 C-27.711000442504883,-20.020999908447266 -26.249000549316406,-19.93000030517578 -24.62700080871582,-18.985000610351562 C-24.62700080871582,-18.985000610351562 18.607999801635742,6.368000030517578 18.607999801635742,6.368000030517578 C19.83799934387207,7.085999965667725 20.986000061035156,8.20199966430664 21.93400001525879,9.520000457763672 C22.770000457763672,10.680999755859375 23.450000762939453,11.99899959564209 23.898000717163086,13.345999717712402 C24.27899932861328,14.477999687194824 24.490999221801758,15.630999565124512 24.490999221801758,16.7189998626709 C24.490999221801758,16.7189998626709 24.490999221801758,18.621999740600586 24.490999221801758,18.621999740600586 C24.490999221801758,20.535999298095703 23.820999145507812,21.886999130249023 22.742000579833984,22.514999389648438 C22.742000579833984,22.514999389648438 27.020000457763672,20.018999099731445 27.020000457763672,20.018999099731445 C28.10099983215332,19.391000747680664 28.770000457763672,18.040000915527344 28.770000457763672,16.125999450683594 C28.770000457763672,16.125999450683594 28.770000457763672,14.223999977111816 28.770000457763672,14.223999977111816 C28.770000457763672,13.135000228881836 28.55699920654297,11.984000205993652 28.179000854492188,10.85099983215332z"></path></g><g opacity="1" transform="matrix(1,0,0,1,159.42999267578125,505.8789978027344)"><path fill="rgb(0,0,0)" fill-opacity="1" d=" M21.617000579833984,4.810999870300293 C21.617000579833984,4.810999870300293 -21.617000579833984,-20.54199981689453 -21.617000579833984,-20.54199981689453 C-24.885000228881836,-22.44499969482422 -27.499000549316406,-20.88800048828125 -27.496999740600586,-17.04400062561035 C-27.496999740600586,-17.04400062561035 -27.496999740600586,-15.142000198364258 -27.496999740600586,-15.142000198364258 C-27.496999740600586,-11.336000442504883 -24.882999420166016,-6.693999767303467 -21.61400032043457,-4.791999816894531 C-21.61400032043457,-4.791999816894531 21.6200008392334,20.56100082397461 21.6200008392334,20.56100082397461 C24.851999282836914,22.444000244140625 27.5,20.871000289916992 27.5,17.06599998474121 C27.5,17.06599998474121 27.5,15.163000106811523 27.5,15.163000106811523 C27.5,11.317000389099121 24.847999572753906,6.697000026702881 21.617000579833984,4.810999870300293z"></path></g><g opacity="1" transform="matrix(1,0,0,1,123.3740005493164,315.9729919433594)"><path fill="rgb(255,255,255)" fill-opacity="1" d=" M5.769000053405762,-3.384000062942505 C2.6040000915527344,-5.252999782562256 -2.5480000972747803,-5.251999855041504 -5.73199987411499,-3.382999897003174 C-8.918000221252441,-1.5130000114440918 -8.932000160217285,1.5160000324249268 -5.765999794006348,3.384000062942505 C-2.6010000705718994,5.251999855041504 2.546999931335449,5.254000186920166 5.73199987411499,3.384999990463257 C8.918000221252441,1.5149999856948853 8.9350004196167,-1.5169999599456787 5.769000053405762,-3.384000062942505z"></path></g><g opacity="1" transform="matrix(1,0,0,1,723.552978515625,617.8389892578125)"><path fill="rgb(255,255,255)" fill-opacity="1" d=" M8.788000106811523,-4.767000198364258 C8.432999610900879,-5.426000118255615 7.243000030517578,-5.86899995803833 5.684000015258789,-5.919000148773193 C0.8090000152587891,-6.073999881744385 -5.452000141143799,-2.691999912261963 -8.017999649047852,1.465000033378601 C-8.854000091552734,2.821000099182129 -9.14900016784668,4.083000183105469 -8.786999702453613,4.75600004196167 C-8.430999755859375,5.418000221252441 -7.242000102996826,5.857999801635742 -5.685999870300293,5.908999919891357 C-0.8930000066757202,6.072999954223633 5.49399995803833,2.611999988555908 8.019000053405762,-1.4789999723434448 C8.854000091552734,-2.8340001106262207 9.14900016784668,-4.0929999351501465 8.788000106811523,-4.767000198364258z"></path></g><g opacity="1" transform="matrix(1,0,0,1,723.552978515625,617.7960205078125)"><path fill="rgb(0,0,0)" fill-opacity="1" d=" M14.914999961853027,-8.015000343322754 C13.342000007629395,-10.940999984741211 10.059000015258789,-12.694999694824219 5.906000137329102,-12.82699966430664 C3.240000009536743,-12.91100025177002 0.367000013589859,-12.32699966430664 -2.3929998874664307,-11.244999885559082 C-7.119999885559082,-9.392000198364258 -11.508999824523926,-6.073999881744385 -13.9350004196167,-2.1429998874664307 C-16.13599967956543,1.4240000247955322 -16.493000030517578,5.1539998054504395 -14.913000106811523,8.093000411987305 C-13.34000015258789,11.015999794006348 -10.057999610900879,12.769000053405762 -5.909999847412109,12.901000022888184 C-5.732999801635742,12.906999588012695 -5.553999900817871,12.91100025177002 -5.375,12.91100025177002 C1.7960000038146973,12.91100025177002 10.187000274658203,8.293999671936035 13.937999725341797,2.2149999141693115 C16.136999130249023,-1.350000023841858 16.492000579833984,-5.078999996185303 14.914999961853027,-8.015000343322754z M-5.684999942779541,5.951000213623047 C-7.242000102996826,5.900000095367432 -8.430999755859375,5.460000038146973 -8.788000106811523,4.798999786376953 C-9.14900016784668,4.125 -8.854000091552734,2.86299991607666 -8.017999649047852,1.5080000162124634 C-5.453000068664551,-2.6500000953674316 0.8090000152587891,-6.03000020980835 5.683000087738037,-5.875999927520752 C7.243000030517578,-5.824999809265137 8.432999610900879,-5.382999897003174 8.788999557495117,-4.723999977111816 C9.149999618530273,-4.050000190734863 8.854000091552734,-2.7920000553131104 8.019000053405762,-1.437000036239624 C5.49399995803833,2.6540000438690186 -0.8920000195503235,6.114999771118164 -5.684999942779541,5.951000213623047z"></path></g><g opacity="1" transform="matrix(1,0,0,1,522.2849731445312,425.8399963378906)"><path fill="rgb(246,146,30)" fill-opacity="1" d=" M-290.2449951171875,-78.9020004272461 C-297.760009765625,-57.37799835205078 -299.34698486328125,-35.24700164794922 -294.96099853515625,-13.121999740600586 C-283.02301025390625,47.11199951171875 -228.51600646972656,100.8290023803711 -145.41600036621094,134.25900268554688 C5.0920000076293945,194.8070068359375 203.4949951171875,170.2169952392578 299.34600830078125,79.70500183105469 C299.34600830078125,79.70500183105469 235.70799255371094,42.15399932861328 235.70799255371094,42.15399932861328 C235.70799255371094,42.15399932861328 140.00900268554688,-13.961000442504883 140.00900268554688,-13.961000442504883 C140.00900268554688,-13.961000442504883 -21.593000411987305,81.8499984741211 -21.593000411987305,81.8499984741211 C-22.03700065612793,82.11399841308594 -22.53700065612793,82.24600219726562 -23.038000106811523,82.24600219726562 C-23.500999450683594,82.24600219726562 -23.96500015258789,82.13300323486328 -24.386999130249023,81.90499877929688 C-24.386999130249023,81.90499877929688 -179.2239990234375,-1.8109999895095825 -179.2239990234375,-1.8109999895095825 C-180.1300048828125,-2.299999952316284 -180.69900512695312,-3.242000102996826 -180.71099853515625,-4.270999908447266 C-180.72300720214844,-5.300000190734863 -180.17599487304688,-6.25600004196167 -179.2830047607422,-6.764999866485596 C-179.2830047607422,-6.764999866485596 -11.345999717712402,-102.70999908447266 -11.345999717712402,-102.70999908447266 C-11.345999717712402,-102.70999908447266 -168.41099548339844,-194.8070068359375 -168.41099548339844,-194.8070068359375 C-200.2949981689453,-180.45599365234375 -227.23800659179688,-162.66299438476562 -248.51100158691406,-141.8780059814453 C-268.39801025390625,-122.44599914550781 -282.4389953613281,-101.25800323486328 -290.2449951171875,-78.9020004272461z"></path></g><g opacity="1" transform="matrix(1,0,0,1,522.0180053710938,424.08599853515625)"><path fill="rgb(255,255,255)" fill-opacity="1" d=" M100.93499755859375,170.7449951171875 C185.77699279785156,159.8730010986328 258.0790100097656,129.19000244140625 304.8389892578125,84.28800201416016 C304.8389892578125,84.28800201416016 235.9739990234375,43.90800094604492 235.9739990234375,43.90800094604492 C235.9739990234375,43.90800094604492 299.614013671875,81.45999908447266 299.614013671875,81.45999908447266 C203.76199340820312,171.9720001220703 5.360000133514404,196.55999755859375 -145.1490020751953,136.01300048828125 C-228.24899291992188,102.58300018310547 -282.7560119628906,48.8650016784668 -294.6940002441406,-11.368000030517578 C-299.0799865722656,-33.49300003051758 -297.4930114746094,-55.624000549316406 -289.9779968261719,-77.14800262451172 C-282.1709899902344,-99.50399780273438 -268.1300048828125,-120.69200134277344 -248.2429962158203,-140.12399291992188 C-226.97000122070312,-160.91000366210938 -200.0279998779297,-178.7010040283203 -168.14300537109375,-193.05299377441406 C-168.14300537109375,-193.05299377441406 -173.9029998779297,-196.43099975585938 -173.9029998779297,-196.43099975585938 C-173.97900390625,-196.47500610351562 -174.0570068359375,-196.51699829101562 -174.1320037841797,-196.56100463867188 C-205.03500366210938,-182.22999572753906 -231.2760009765625,-164.6280059814453 -252.2050018310547,-144.17799377441406 C-272.7239990234375,-124.12899780273438 -287.2330017089844,-102.20700073242188 -295.3299865722656,-79.01699829101562 C-303.1830139160156,-56.5260009765625 -304.8399963378906,-33.395999908447266 -300.2550048828125,-10.265999794006348 C-287.93798828125,51.88100051879883 -232.1750030517578,107.11499786376953 -147.26499938964844,141.2729949951172 C-92.0469970703125,163.48699951171875 -29.336000442504883,174.98399353027344 34.266998291015625,174.98399353027344 C56.4739990234375,174.98399353027344 78.79299926757812,173.58299255371094 100.93499755859375,170.7449951171875z"></path></g><g opacity="1" transform="matrix(1,0,0,1,503.4739990234375,414.21600341796875)"><path fill="rgb(83,157,212)" fill-opacity="1" d=" M-4.291999816894531,87.77899932861328 C-4.291999816894531,87.77899932861328 153.22999572753906,-5.613999843597412 153.22999572753906,-5.613999843597412 C153.22999572753906,-5.613999843597412 13.104000091552734,-87.77899932861328 13.104000091552734,-87.77899932861328 C13.104000091552734,-87.77899932861328 -153.22999572753906,7.251999855041504 -153.22999572753906,7.251999855041504 C-153.22999572753906,7.251999855041504 -4.291999816894531,87.77899932861328 -4.291999816894531,87.77899932861328z"></path></g><g opacity="1" transform="matrix(1,0,0,1,501.9289855957031,415.6090087890625)"><path fill="rgb(255,255,255)" fill-opacity="1" d=" M-160.35400390625,5.960999965667725 C-160.3419952392578,6.989999771118164 -159.7729949951172,7.932000160217285 -158.8679962158203,8.420999526977539 C-158.8679962158203,8.420999526977539 -4.03000020980835,92.13700103759766 -4.03000020980835,92.13700103759766 C-3.6080000400543213,92.36499786376953 -3.1449999809265137,92.47899627685547 -2.681999921798706,92.47899627685547 C-2.180999994277954,92.47899627685547 -1.680999994277954,92.34600067138672 -1.2359999418258667,92.08200073242188 C-1.2359999418258667,92.08200073242188 160.36599731445312,-3.7279999256134033 160.36599731445312,-3.7279999256134033 C160.36599731445312,-3.7279999256134033 154.7760009765625,-7.00600004196167 154.7760009765625,-7.00600004196167 C154.7760009765625,-7.00600004196167 -2.746000051498413,86.38700103759766 -2.746000051498413,86.38700103759766 C-2.746000051498413,86.38700103759766 -151.68600463867188,5.859000205993652 -151.68600463867188,5.859000205993652 C-151.68600463867188,5.859000205993652 14.649999618530273,-89.1709976196289 14.649999618530273,-89.1709976196289 C14.649999618530273,-89.1709976196289 9.01099967956543,-92.47799682617188 9.01099967956543,-92.47799682617188 C9.01099967956543,-92.47799682617188 -158.92599487304688,3.4670000076293945 -158.92599487304688,3.4670000076293945 C-159.81900024414062,3.9769999980926514 -160.36599731445312,4.932000160217285 -160.35400390625,5.960999965667725z"></path></g><g opacity="1" transform="matrix(1,0,0,1,348.0169982910156,420.2070007324219)"><path stroke-linecap="round" stroke-linejoin="round" fill-opacity="0" stroke="rgb(255,255,255)" stroke-opacity="1" stroke-width="5.669" d=" M-2.575000047683716,1.5269999504089355 C-1.0570000410079956,0.375 0.6660000085830688,-0.6430000066757202 2.5759999752044678,-1.5269999504089355"></path></g><g opacity="1" transform="matrix(1,0,0,1,437.0769958496094,454.29901123046875)"><path stroke-linecap="round" stroke-linejoin="round" fill-opacity="0" stroke-dasharray=" 11.684 11.684" stroke-dashoffset="0" stroke="rgb(255,255,255)" stroke-opacity="1" stroke-width="5.669" d=" M-75.3219985961914,-38.952999114990234 C-56.14699935913086,-42.316001892089844 -27.850000381469727,-37.82400131225586 0.4429999887943268,-26.115999221801758 C44.8380012512207,-7.74399995803833 75.3219985961914,22.643999099731445 69.67400360107422,42.314998626708984"></path></g><g opacity="1" transform="matrix(1,0,0,1,502.0820007324219,503.9540100097656)"><path stroke-linecap="round" stroke-linejoin="round" fill-opacity="0" stroke="rgb(255,255,255)" stroke-opacity="1" stroke-width="5.669" d=" M2.11299991607666,-2.118000030517578 C0.9879999756813049,-0.5680000185966492 -0.42399999499320984,0.8479999899864197 -2.11299991607666,2.117000102996826"></path></g><g opacity="1" transform="matrix(1,0,0,1,415.5140075683594,469.7760009765625)"><path stroke-linecap="round" stroke-linejoin="round" fill-opacity="0" stroke="rgb(255,255,255)" stroke-opacity="1" stroke-width="5.669" d=" M84.65799713134766,36.15999984741211 C68.8270034790039,48.21500015258789 30.58099937438965,45.58300018310547 -7.673999786376953,29.805999755859375 C-53.5620002746582,10.880999565124512 -84.65799713134766,-20.851999282836914 -76.55899810791016,-40.4900016784668 C-75.33899688720703,-43.45000076293945 -73.26399993896484,-46.04499816894531 -70.38500213623047,-48.21500015258789"></path></g><g opacity="1" transform="matrix(1,0,0,1,582.6859741210938,147.3679962158203)"><path fill="rgb(0,0,0)" fill-opacity="1" d=" M120.47200012207031,-15.050000190734863 C120.47200012207031,-15.050000190734863 -106.49600219726562,-141.81300354003906 -106.49600219726562,-141.81300354003906 C-107.5999984741211,-142.4290008544922 -108.88500213623047,-142.63900756835938 -110.12899780273438,-142.4040069580078 C-110.12899780273438,-142.4040069580078 -120.94599914550781,-140.36300659179688 -120.94599914550781,-140.36300659179688 C-120.94599914550781,-140.36300659179688 -120.90799713134766,-140.33900451660156 -120.90799713134766,-140.33900451660156 C-121.35700225830078,-140.2779998779297 -121.79900360107422,-140.15699768066406 -122.20099639892578,-139.92100524902344 C-123.26499938964844,-139.2969970703125 -123.91899871826172,-138.15499877929688 -123.91899871826172,-136.9219970703125 C-123.91899871826172,-136.9219970703125 -123.91899871826172,9.519000053405762 -123.91899871826172,9.519000053405762 C-123.91899871826172,10.779000282287598 -123.23699951171875,11.9399995803833 -122.13700103759766,12.553999900817871 C-122.13700103759766,12.553999900817871 109.98799896240234,142.197998046875 109.98799896240234,142.197998046875 C110.51499938964844,142.49200439453125 111.0979995727539,142.63900756835938 111.68299865722656,142.63900756835938 C112.29100036621094,142.63900756835938 112.9000015258789,142.47900390625 113.44300079345703,142.16099548339844 C113.72200012207031,141.99600219726562 113.96900177001953,141.79299926757812 114.18800354003906,141.56500244140625 C114.18800354003906,141.56500244140625 122.2300033569336,134.74899291992188 122.2300033569336,134.74899291992188 C123.3010025024414,133.83999633789062 123.91899871826172,132.50599670410156 123.91899871826172,131.1009979248047 C123.91899871826172,131.1009979248047 123.91899871826172,-9.175000190734863 123.91899871826172,-9.175000190734863 C123.91899871826172,-11.61299991607666 122.5999984741211,-13.861000061035156 120.47200012207031,-15.050000190734863z"></path></g><g opacity="1" transform="matrix(1,0,0,1,578.3070068359375,148.48800659179688)"><path fill="rgb(83,157,212)" fill-opacity="1" d=" M103.9729995727539,131.2899932861328 C103.9729995727539,131.2899932861328 -111.89800262451172,10.725000381469727 -111.89800262451172,10.725000381469727 C-114.46900177001953,9.288999557495117 -116.06199645996094,6.573999881744385 -116.06199645996094,3.628999948501587 C-116.06199645996094,3.628999948501587 -116.06199645996094,-124.19499969482422 -116.06199645996094,-124.19499969482422 C-116.06199645996094,-130.3990020751953 -109.38899993896484,-134.31500244140625 -103.97200012207031,-131.2899932861328 C-103.97200012207031,-131.2899932861328 111.89800262451172,-10.725000381469727 111.89800262451172,-10.725000381469727 C114.46800231933594,-9.288999557495117 116.06199645996094,-6.573999881744385 116.06199645996094,-3.628999948501587 C116.06199645996094,-3.628999948501587 116.06199645996094,124.19499969482422 116.06199645996094,124.19499969482422 C116.06199645996094,130.3990020751953 109.38999938964844,134.31500244140625 103.9729995727539,131.2899932861328z"></path></g><g opacity="1" transform="matrix(1,0,0,1,578.3070068359375,148.48800659179688)"><path stroke-linecap="round" stroke-linejoin="round" fill-opacity="0" stroke="rgb(0,0,0)" stroke-opacity="1" stroke-width="5.669" d=" M103.9729995727539,131.2899932861328 C103.9729995727539,131.2899932861328 -111.89800262451172,10.725000381469727 -111.89800262451172,10.725000381469727 C-114.46900177001953,9.288999557495117 -116.06199645996094,6.573999881744385 -116.06199645996094,3.628999948501587 C-116.06199645996094,3.628999948501587 -116.06199645996094,-124.19499969482422 -116.06199645996094,-124.19499969482422 C-116.06199645996094,-130.3990020751953 -109.38899993896484,-134.31500244140625 -103.97200012207031,-131.2899932861328 C-103.97200012207031,-131.2899932861328 111.89800262451172,-10.725000381469727 111.89800262451172,-10.725000381469727 C114.46800231933594,-9.288999557495117 116.06199645996094,-6.573999881744385 116.06199645996094,-3.628999948501587 C116.06199645996094,-3.628999948501587 116.06199645996094,124.19499969482422 116.06199645996094,124.19499969482422 C116.06199645996094,130.3990020751953 109.38999938964844,134.31500244140625 103.9729995727539,131.2899932861328z"></path></g><g opacity="1" transform="matrix(1,0,0,1,573.0830078125,174.22999572753906)"><path fill="rgb(168,115,175)" fill-opacity="1" d=" M60.191001892089844,71.58999633789062 C60.191001892089844,71.58999633789062 -60.191001892089844,4.355999946594238 -60.191001892089844,4.355999946594238 C-60.191001892089844,4.355999946594238 -60.191001892089844,-71.58999633789062 -60.191001892089844,-71.58999633789062 C-60.191001892089844,-71.58999633789062 60.191001892089844,-4.355999946594238 60.191001892089844,-4.355999946594238 C60.191001892089844,-4.355999946594238 60.191001892089844,71.58999633789062 60.191001892089844,71.58999633789062z"></path></g><g opacity="1" transform="matrix(1,0,0,1,573.0830078125,174.22999572753906)"><path stroke-linecap="round" stroke-linejoin="round" fill-opacity="0" stroke="rgb(255,255,255)" stroke-opacity="1" stroke-width="5.669" d=" M6.461999893188477,41.582000732421875 C-13.42199993133545,30.476999282836914 -34.25899887084961,18.839000701904297 -47.23099899291992,11.593999862670898"></path></g><g opacity="1" transform="matrix(1,0,0,1,571.635009765625,297.4859924316406)"><path fill="rgb(0,0,0)" fill-opacity="1" d=" M22.98699951171875,-69.10600280761719 C22.98699951171875,-69.10600280761719 -7.355999946594238,-87.02899932861328 -7.355999946594238,-87.02899932861328 C-7.925000190734863,-87.36599731445312 -8.5649995803833,-87.52400207519531 -9.201000213623047,-87.51000213623047 C-9.201000213623047,-87.51000213623047 -19.450000762939453,-93.56400299072266 -19.450000762939453,-93.56400299072266 C-20.525999069213867,-94.1989974975586 -21.858999252319336,-94.20899963378906 -22.94300079345703,-93.58999633789062 C-24.027000427246094,-92.97100067138672 -24.695999145507812,-91.81800079345703 -24.695999145507812,-90.56999969482422 C-24.695999145507812,-90.56999969482422 -24.695999145507812,72.80799865722656 -24.695999145507812,72.80799865722656 C-24.695999145507812,74.03800201416016 -24.04599952697754,75.1760025024414 -22.98699951171875,75.802001953125 C-22.98699951171875,75.802001953125 7.355999946594238,93.72599792480469 7.355999946594238,93.72599792480469 C7.421000003814697,93.76300048828125 7.492000102996826,93.7770004272461 7.558000087738037,93.81099700927734 C7.625,93.84400177001953 7.678999900817871,93.89399719238281 7.748000144958496,93.92500305175781 C7.85099983215332,93.96900177001953 7.960000038146973,93.98999786376953 8.065999984741211,94.02400207519531 C8.145999908447266,94.05000305175781 8.222999572753906,94.0790023803711 8.305000305175781,94.0999984741211 C8.576000213623047,94.16500091552734 8.848999977111816,94.20899963378906 9.125,94.20899963378906 C9.125,94.20899963378906 9.12600040435791,94.20899963378906 9.12600040435791,94.20899963378906 C9.12600040435791,94.20899963378906 9.12600040435791,94.20800018310547 9.126999855041504,94.20800018310547 C9.392000198364258,94.20800018310547 9.654000282287598,94.16699981689453 9.913000106811523,94.10600280761719 C9.968999862670898,94.09400177001953 10.024999618530273,94.08100128173828 10.081000328063965,94.06500244140625 C10.333000183105469,93.99299621582031 10.57800006866455,93.89600372314453 10.8100004196167,93.76799774169922 C10.822999954223633,93.76100158691406 10.836999893188477,93.75900268554688 10.848999977111816,93.7509994506836 C10.876999855041504,93.73500061035156 10.895999908447266,93.71099853515625 10.923999786376953,93.69400024414062 C11.029000282287598,93.63099670410156 11.13599967956543,93.56999969482422 11.236000061035156,93.49400329589844 C11.236000061035156,93.49400329589844 23.33099937438965,84.25399780273438 23.33099937438965,84.25399780273438 C24.19099998474121,83.59700012207031 24.695999145507812,82.5739974975586 24.695999145507812,81.49099731445312 C24.695999145507812,81.49099731445312 24.695999145507812,-66.11199951171875 24.695999145507812,-66.11199951171875 C24.695999145507812,-67.34200286865234 24.047000885009766,-68.48100280761719 22.98699951171875,-69.10600280761719z"></path></g><g opacity="1" transform="matrix(1,0,0,1,565.5880126953125,297.5669860839844)"><path fill="rgb(83,157,212)" fill-opacity="1" d=" M15.17199993133545,90.6500015258789 C15.17199993133545,90.6500015258789 -15.17199993133545,72.72699737548828 -15.17199993133545,72.72699737548828 C-15.17199993133545,72.72699737548828 -15.17199993133545,-90.6500015258789 -15.17199993133545,-90.6500015258789 C-15.17199993133545,-90.6500015258789 15.17199993133545,-72.72599792480469 15.17199993133545,-72.72599792480469 C15.17199993133545,-72.72599792480469 15.17199993133545,90.6500015258789 15.17199993133545,90.6500015258789z"></path></g><g opacity="1" transform="matrix(1,0,0,1,565.5880126953125,297.5669860839844)"><path stroke-linecap="round" stroke-linejoin="round" fill-opacity="0" stroke="rgb(0,0,0)" stroke-opacity="1" stroke-width="5.669" d=" M15.17199993133545,90.6500015258789 C15.17199993133545,90.6500015258789 -15.17199993133545,72.72699737548828 -15.17199993133545,72.72699737548828 C-15.17199993133545,72.72699737548828 -15.17199993133545,-90.6500015258789 -15.17199993133545,-90.6500015258789 C-15.17199993133545,-90.6500015258789 15.17199993133545,-72.72599792480469 15.17199993133545,-72.72599792480469 C15.17199993133545,-72.72599792480469 15.17199993133545,90.6500015258789 15.17199993133545,90.6500015258789z"></path></g><g opacity="1" transform="matrix(1,0,0,1,518.0050048828125,252.5780029296875)"><path stroke-linecap="round" stroke-linejoin="round" fill-opacity="0" stroke="rgb(255,255,255)" stroke-opacity="1" stroke-width="3" d=" M-3.265000104904175,-36.494998931884766 C-3.265000104904175,-36.494998931884766 -4.75600004196167,-22.617000579833984 0,1.812000036239624 C4.75600004196167,26.242000579833984 1.5820000171661377,36.494998931884766 1.5820000171661377,36.494998931884766"></path></g><g opacity="1" transform="matrix(1,0,0,1,581.3109741210938,267.6180114746094)"><path stroke-linecap="round" stroke-linejoin="round" fill-opacity="0" stroke="rgb(255,255,255)" stroke-opacity="1" stroke-width="3" d=" M18.270000457763672,-32.91400146484375 C18.270000457763672,-32.91400146484375 12.815999984741211,-8.848999977111816 -0.5509999990463257,6.9710001945495605 C-18.270000457763672,27.94099998474121 -4.650000095367432,32.91400146484375 -4.650000095367432,32.91400146484375"></path></g><g opacity="1" transform="matrix(1,0,0,1,535.8049926757812,267.5050048828125)"><path stroke-linecap="round" stroke-linejoin="round" fill-opacity="0" stroke="rgb(255,255,255)" stroke-opacity="1" stroke-width="3" d=" M-3.384000062942505,-29.999000549316406 C-3.384000062942505,-29.999000549316406 -0.30399999022483826,-5.888000011444092 1.9420000314712524,10.541999816894531 C3.384000062942505,21.09000015258789 0.8610000014305115,29.999000549316406 0.8610000014305115,29.999000549316406"></path></g><g opacity="1" transform="matrix(1,0,0,1,564.1589965820312,277.27801513671875)"><path stroke-linecap="round" stroke-linejoin="round" fill-opacity="0" stroke="rgb(255,255,255)" stroke-opacity="1" stroke-width="3" d=" M6.639999866485596,-27.344999313354492 C6.639999866485596,-27.344999313354492 1.0440000295639038,-10.038999557495117 -2.63100004196167,-1.6080000400543213 C-6.306000232696533,6.822999954223633 -6.639999866485596,22.1560001373291 -4.478000164031982,27.344999313354492"></path></g><g opacity="1" transform="matrix(1,0,0,1,545.3170166015625,260.8900146484375)"><path stroke-linecap="round" stroke-linejoin="round" fill-opacity="0" stroke="rgb(255,255,255)" stroke-opacity="1" stroke-width="3" d=" M-29.608999252319336,-21.788000106811523 C-29.608999252319336,-21.788000106811523 -8.66100025177002,13.878999710083008 29.608999252319336,21.788000106811523"></path></g><g opacity="1" transform="matrix(1,0,0,1,564.2880249023438,255.3719940185547)"><path stroke-linecap="round" stroke-linejoin="round" fill-opacity="0" stroke="rgb(255,255,255)" stroke-opacity="1" stroke-width="3" d=" M-21.650999069213867,-12.133000373840332 C-21.650999069213867,-12.133000373840332 -4.742000102996826,11.53499984741211 21.650999069213867,12.133000373840332"></path></g><g opacity="1" transform="matrix(1,0,0,1,546.4110107421875,283.0429992675781)"><path stroke-linecap="round" stroke-linejoin="round" fill-opacity="0" stroke="rgb(255,255,255)" stroke-opacity="1" stroke-width="3" d=" M-25.308000564575195,-10.616999626159668 C-25.308000564575195,-10.616999626159668 -15.736000061035156,9.583000183105469 25.308000564575195,10.616999626159668"></path></g><g opacity="1" transform="matrix(1,0,0,1,557.0009765625,220.57899475097656)"><path stroke-linecap="round" stroke-linejoin="round" fill-opacity="0" stroke="rgb(246,146,30)" stroke-opacity="1" stroke-width="8" d=" M40.814998626708984,0.6830000281333923 C48.435001373291016,16.895000457763672 36.3380012512207,29.731000900268555 13.79699993133545,29.354000091552734 C-8.744999885559082,28.97599983215332 -33.19499969482422,15.529000282287598 -40.814998626708984,-0.6830000281333923 C-48.435001373291016,-16.895000457763672 -36.3390007019043,-29.731000900268555 -13.79699993133545,-29.354000091552734 C8.744000434875488,-28.97599983215332 33.19499969482422,-15.527999877929688 40.814998626708984,0.6830000281333923z"></path></g><g opacity="1" transform="matrix(1,0,0,1,744.6649780273438,372.8179931640625)"><path fill="rgb(255,255,255)" fill-opacity="1" d=" M51.98699951171875,59.33700180053711 C51.98699951171875,59.33700180053711 -55.95000076293945,-0.9449999928474426 -55.95000076293945,-0.9449999928474426 C-57.23500061035156,-1.6640000343322754 -58.03099822998047,-3.0209999084472656 -58.03099822998047,-4.493000030517578 C-58.03099822998047,-4.493000030517578 -58.03099822998047,-55.78900146484375 -58.03099822998047,-55.78900146484375 C-58.03099822998047,-58.891998291015625 -54.69499969482422,-60.849998474121094 -51.98699951171875,-59.33700180053711 C-51.98699951171875,-59.33700180053711 55.94900131225586,0.9449999928474426 55.94900131225586,0.9449999928474426 C57.23400115966797,1.6629999876022339 58.03099822998047,3.0209999084472656 58.03099822998047,4.493000030517578 C58.03099822998047,4.493000030517578 58.03099822998047,55.78900146484375 58.03099822998047,55.78900146484375 C58.03099822998047,58.891998291015625 54.69599914550781,60.849998474121094 51.98699951171875,59.33700180053711z"></path></g><g opacity="1" transform="matrix(1,0,0,1,744.6649780273438,372.8179931640625)"><path stroke-linecap="round" stroke-linejoin="round" fill-opacity="0" stroke="rgb(0,0,0)" stroke-opacity="1" stroke-width="5.669" d=" M51.98699951171875,59.33700180053711 C51.98699951171875,59.33700180053711 -55.95000076293945,-0.9449999928474426 -55.95000076293945,-0.9449999928474426 C-57.23500061035156,-1.6640000343322754 -58.03099822998047,-3.0209999084472656 -58.03099822998047,-4.493000030517578 C-58.03099822998047,-4.493000030517578 -58.03099822998047,-55.78900146484375 -58.03099822998047,-55.78900146484375 C-58.03099822998047,-58.891998291015625 -54.69499969482422,-60.849998474121094 -51.98699951171875,-59.33700180053711 C-51.98699951171875,-59.33700180053711 55.94900131225586,0.9449999928474426 55.94900131225586,0.9449999928474426 C57.23400115966797,1.6629999876022339 58.03099822998047,3.0209999084472656 58.03099822998047,4.493000030517578 C58.03099822998047,4.493000030517578 58.03099822998047,55.78900146484375 58.03099822998047,55.78900146484375 C58.03099822998047,58.891998291015625 54.69599914550781,60.849998474121094 51.98699951171875,59.33700180053711z"></path></g><g opacity="1" transform="matrix(1,0,0,1,718.7570190429688,359.8529968261719)"><path fill="rgb(237,56,78)" fill-opacity="1" d=" M-9.300999641418457,-20.02400016784668 C-9.300999641418457,-20.02400016784668 -2.5399999618530273,-16.292999267578125 -2.5399999618530273,-16.292999267578125 C-2.5399999618530273,-16.292999267578125 -2.5399999618530273,7.831999778747559 -2.5399999618530273,7.831999778747559 C-2.5399999618530273,7.831999778747559 9.300999641418457,14.369000434875488 9.300999641418457,14.369000434875488 C9.300999641418457,14.369000434875488 9.300999641418457,20.02400016784668 9.300999641418457,20.02400016784668 C9.300999641418457,20.02400016784668 -9.300999641418457,9.755999565124512 -9.300999641418457,9.755999565124512 C-9.300999641418457,9.755999565124512 -9.300999641418457,-20.02400016784668 -9.300999641418457,-20.02400016784668z"></path></g><g opacity="1" transform="matrix(1,0,0,1,735.4140014648438,369.0480041503906)"><path fill="rgb(237,56,78)" fill-opacity="1" d=" M3.380000114440918,-13.02400016784668 C3.380000114440918,-13.02400016784668 3.380000114440918,16.756000518798828 3.380000114440918,16.756000518798828 C3.380000114440918,16.756000518798828 -3.380000114440918,13.02400016784668 -3.380000114440918,13.02400016784668 C-3.380000114440918,13.02400016784668 -3.380000114440918,-16.756000518798828 -3.380000114440918,-16.756000518798828 C-3.380000114440918,-16.756000518798828 3.380000114440918,-13.02400016784668 3.380000114440918,-13.02400016784668z"></path></g><g opacity="1" transform="matrix(1,0,0,1,755.8270263671875,377.5469970703125)"><path fill="rgb(237,56,78)" fill-opacity="1" d=" M-4.176000118255615,15.352999687194824 C-4.176000118255615,15.352999687194824 -13.718999862670898,-19.69499969482422 -13.718999862670898,-19.69499969482422 C-13.718999862670898,-19.69499969482422 -6.341000080108643,-15.621999740600586 -6.341000080108643,-15.621999740600586 C-6.341000080108643,-15.621999740600586 -2.7170000076293945,-1.0290000438690186 -2.7170000076293945,-1.0290000438690186 C-1.7000000476837158,3.066999912261963 -0.7749999761581421,6.980999946594238 -0.06800000369548798,11.081999778747559 C-0.06800000369548798,11.081999778747559 0.06499999761581421,11.156000137329102 0.06499999761581421,11.156000137329102 C0.8159999847412109,7.992000102996826 1.74399995803833,4.968999862670898 2.759999990463257,2.127000093460083 C2.759999990463257,2.127000093460083 6.560999870300293,-8.5 6.560999870300293,-8.5 C6.560999870300293,-8.5 13.720000267028809,-4.547999858856201 13.720000267028809,-4.547999858856201 C13.720000267028809,-4.547999858856201 3.688999891281128,19.69499969482422 3.688999891281128,19.69499969482422 C3.688999891281128,19.69499969482422 -4.176000118255615,15.352999687194824 -4.176000118255615,15.352999687194824z"></path></g><g opacity="1" transform="matrix(1,0,0,1,782.2260131835938,394.88800048828125)"><path fill="rgb(237,56,78)" fill-opacity="1" d=" M8.218999862670898,6.834000110626221 C8.218999862670898,6.834000110626221 -2.740000009536743,0.7850000262260437 -2.740000009536743,0.7850000262260437 C-2.740000009536743,0.7850000262260437 -2.740000009536743,7.855000019073486 -2.740000009536743,7.855000019073486 C-2.740000009536743,7.855000019073486 9.49899959564209,14.609999656677246 9.49899959564209,14.609999656677246 C9.49899959564209,14.609999656677246 9.49899959564209,20.134000778198242 9.49899959564209,20.134000778198242 C9.49899959564209,20.134000778198242 -9.5,9.647000312805176 -9.5,9.647000312805176 C-9.5,9.647000312805176 -9.5,-20.134000778198242 -9.5,-20.134000778198242 C-9.5,-20.134000778198242 8.880000114440918,-9.98799991607666 8.880000114440918,-9.98799991607666 C8.880000114440918,-9.98799991607666 8.880000114440918,-4.465000152587891 8.880000114440918,-4.465000152587891 C8.880000114440918,-4.465000152587891 -2.740000009536743,-10.878999710083008 -2.740000009536743,-10.878999710083008 C-2.740000009536743,-10.878999710083008 -2.740000009536743,-4.692999839782715 -2.740000009536743,-4.692999839782715 C-2.740000009536743,-4.692999839782715 8.218999862670898,1.3550000190734863 8.218999862670898,1.3550000190734863 C8.218999862670898,1.3550000190734863 8.218999862670898,6.834000110626221 8.218999862670898,6.834000110626221z"></path></g><g opacity="1" transform="matrix(1,0,0,1,0,0)"><path stroke-linecap="round" stroke-linejoin="miter" fill-opacity="0" stroke-miterlimit="10" stroke="rgb(0,0,0)" stroke-opacity="1" stroke-width="5.669" d=" M703.0479736328125,379.87701416015625 C703.0479736328125,379.87701416015625 703.0479736328125,429.4909973144531 703.0479736328125,429.4909973144531"></path></g><g opacity="1" transform="matrix(1,0,0,1,0,0)"><path stroke-linecap="round" stroke-linejoin="miter" fill-opacity="0" stroke-miterlimit="10" stroke="rgb(0,0,0)" stroke-opacity="1" stroke-width="5.669" d=" M774.9140014648438,420.0899963378906 C774.9140014648438,420.0899963378906 774.9140014648438,473.56500244140625 774.9140014648438,473.56500244140625"></path></g><g opacity="0.6" transform="matrix(1,0,0,1,625.4530029296875,616.1589965820312)"><path fill="rgb(117,75,40)" fill-opacity="1" d=" M49.36899948120117,0 C49.36899948120117,11.265999794006348 27.264999389648438,20.39699935913086 0,20.39699935913086 C-27.266000747680664,20.39699935913086 -49.36899948120117,11.265999794006348 -49.36899948120117,0 C-49.36899948120117,-11.265000343322754 -27.266000747680664,-20.39699935913086 0,-20.39699935913086 C27.264999389648438,-20.39699935913086 49.36899948120117,-11.265000343322754 49.36899948120117,0z"></path></g><g opacity="1" transform="matrix(1,0,0,1,632.5180053710938,610.4010009765625)"><path fill="rgb(252,223,42)" fill-opacity="1" d=" M35.57099914550781,0 C35.57099914550781,8.689000129699707 19.645000457763672,15.734000205993652 0,15.734000205993652 C-19.645000457763672,15.734000205993652 -35.57099914550781,8.689000129699707 -35.57099914550781,0 C-35.57099914550781,-8.687999725341797 -19.645000457763672,-15.732999801635742 0,-15.732999801635742 C19.645000457763672,-15.732999801635742 35.57099914550781,-8.687999725341797 35.57099914550781,0z"></path></g><g opacity="1" transform="matrix(1,0,0,1,632.5180053710938,610.4010009765625)"><path stroke-linecap="round" stroke-linejoin="round" fill-opacity="0" stroke="rgb(0,0,0)" stroke-opacity="1" stroke-width="5.669" d=" M35.57099914550781,0 C35.57099914550781,8.689000129699707 19.645000457763672,15.734000205993652 0,15.734000205993652 C-19.645000457763672,15.734000205993652 -35.57099914550781,8.689000129699707 -35.57099914550781,0 C-35.57099914550781,-8.687999725341797 -19.645000457763672,-15.732999801635742 0,-15.732999801635742 C19.645000457763672,-15.732999801635742 35.57099914550781,-8.687999725341797 35.57099914550781,0z"></path></g><g opacity="1" transform="matrix(1,0,0,1,632.5180053710938,589.968994140625)"><path fill="rgb(249,174,64)" fill-opacity="1" d=" M20.05299949645996,0 C20.05299949645996,8.689000129699707 11.074000358581543,15.732999801635742 -0.0010000000474974513,15.732999801635742 C-11.074999809265137,15.732999801635742 -20.05299949645996,8.689000129699707 -20.05299949645996,0 C-20.05299949645996,-8.689000129699707 -11.074999809265137,-15.732999801635742 -0.0010000000474974513,-15.732999801635742 C11.074000358581543,-15.732999801635742 20.05299949645996,-8.689000129699707 20.05299949645996,0z"></path></g><g opacity="1" transform="matrix(1,0,0,1,632.5180053710938,589.968994140625)"><path stroke-linecap="round" stroke-linejoin="round" fill-opacity="0" stroke="rgb(0,0,0)" stroke-opacity="1" stroke-width="5.669" d=" M20.05299949645996,0 C20.05299949645996,8.689000129699707 11.074000358581543,15.732999801635742 -0.0010000000474974513,15.732999801635742 C-11.074999809265137,15.732999801635742 -20.05299949645996,8.689000129699707 -20.05299949645996,0 C-20.05299949645996,-8.689000129699707 -11.074999809265137,-15.732999801635742 -0.0010000000474974513,-15.732999801635742 C11.074000358581543,-15.732999801635742 20.05299949645996,-8.689000129699707 20.05299949645996,0z"></path></g><g opacity="1" transform="matrix(1,0,0,1,633.7760009765625,538.1339721679688)"><path fill="rgb(252,223,42)" fill-opacity="1" d=" M58.34600067138672,-10.447999954223633 C58.34600067138672,18.18000030517578 30.270999908447266,51.83599853515625 -1.2580000162124634,51.83599853515625 C-32.7869987487793,51.83599853515625 -58.34600067138672,19.382999420166016 -58.34600067138672,-9.244999885559082 C-58.34600067138672,-37.87300109863281 -32.7869987487793,-51.83599853515625 -1.2580000162124634,-51.83599853515625 C30.270999908447266,-51.83599853515625 58.34600067138672,-39.07600021362305 58.34600067138672,-10.447999954223633z"></path></g><g opacity="1" transform="matrix(1,0,0,1,633.7760009765625,538.1339721679688)"><path stroke-linecap="round" stroke-linejoin="round" fill-opacity="0" stroke="rgb(0,0,0)" stroke-opacity="1" stroke-width="5.669" d=" M58.34600067138672,-10.447999954223633 C58.34600067138672,18.18000030517578 30.270999908447266,51.83599853515625 -1.2580000162124634,51.83599853515625 C-32.7869987487793,51.83599853515625 -58.34600067138672,19.382999420166016 -58.34600067138672,-9.244999885559082 C-58.34600067138672,-37.87300109863281 -32.7869987487793,-51.83599853515625 -1.2580000162124634,-51.83599853515625 C30.270999908447266,-51.83599853515625 58.34600067138672,-39.07600021362305 58.34600067138672,-10.447999954223633z"></path></g><g opacity="1" transform="matrix(1,0,0,1,632.5180053710938,518.1649780273438)"><path fill="rgb(252,223,42)" fill-opacity="1" d=" M57.0890007019043,0 C57.0890007019043,17.600000381469727 31.527999877929688,31.867000579833984 -0.0010000000474974513,31.867000579833984 C-31.52899932861328,31.867000579833984 -57.0890007019043,17.600000381469727 -57.0890007019043,0 C-57.0890007019043,-17.600000381469727 -31.52899932861328,-31.865999221801758 -0.0010000000474974513,-31.865999221801758 C31.527999877929688,-31.865999221801758 57.0890007019043,-17.600000381469727 57.0890007019043,0z"></path></g><g opacity="1" transform="matrix(1,0,0,1,632.5180053710938,518.1649780273438)"><path stroke-linecap="round" stroke-linejoin="round" fill-opacity="0" stroke="rgb(0,0,0)" stroke-opacity="1" stroke-width="5.669" d=" M57.0890007019043,0 C57.0890007019043,17.600000381469727 31.527999877929688,31.867000579833984 -0.0010000000474974513,31.867000579833984 C-31.52899932861328,31.867000579833984 -57.0890007019043,17.600000381469727 -57.0890007019043,0 C-57.0890007019043,-17.600000381469727 -31.52899932861328,-31.865999221801758 -0.0010000000474974513,-31.865999221801758 C31.527999877929688,-31.865999221801758 57.0890007019043,-17.600000381469727 57.0890007019043,0z"></path></g><g opacity="1" transform="matrix(1,0,0,1,632.5180053710938,521.6339721679688)"><path fill="rgb(246,146,30)" fill-opacity="1" d=" M39.30400085449219,0 C39.30400085449219,12.116000175476074 21.70599937438965,21.93899917602539 -0.0010000000474974513,21.93899917602539 C-21.70800018310547,21.93899917602539 -39.30400085449219,12.116000175476074 -39.30400085449219,0 C-39.30400085449219,-12.116999626159668 -21.70800018310547,-21.937999725341797 -0.0010000000474974513,-21.937999725341797 C21.70599937438965,-21.937999725341797 39.30400085449219,-12.116999626159668 39.30400085449219,0z"></path></g><g opacity="1" transform="matrix(1,0,0,1,685.9130249023438,556.510009765625)"><path stroke-linecap="round" stroke-linejoin="round" fill-opacity="0" stroke="rgb(0,0,0)" stroke-opacity="1" stroke-width="5.669" d=" M6.372000217437744,-17.10300064086914 C6.372000217437744,-17.10300064086914 17.823999404907227,-21.003999710083008 15.527000427246094,-5.5 C13.229999542236328,10.003999710083008 -17.825000762939453,21.003999710083008 -17.825000762939453,21.003999710083008"></path></g><g opacity="1" transform="matrix(1,0,0,1,580.635986328125,556.510009765625)"><path stroke-linecap="round" stroke-linejoin="round" fill-opacity="0" stroke="rgb(0,0,0)" stroke-opacity="1" stroke-width="5.669" d=" M-6.370999813079834,-17.10300064086914 C-6.370999813079834,-17.10300064086914 -17.823999404907227,-21.003999710083008 -15.527000427246094,-5.5 C-13.229999542236328,10.003999710083008 17.825000762939453,21.003999710083008 17.825000762939453,21.003999710083008"></path></g></g><g transform="matrix(1,0,0,1,608.2890014648438,662.7239990234375)" opacity="1" style="display: block;"><g opacity="1" transform="matrix(0.8384037613868713,0,0,0.8384037613868713,173.38699340820312,14.78600025177002)"><path fill="rgb(255,255,255)" fill-opacity="1" d=" M-2.503999948501587,-14.53600025177002 C-2.503999948501587,-14.53600025177002 -3.253999948501587,-3.009999990463257 -13.894000053405762,-0.23899999260902405 C-13.894000053405762,-0.23899999260902405 -2.115000009536743,0.2549999952316284 -0.1809999942779541,14.53600025177002 C-0.1809999942779541,14.53600025177002 1.0010000467300415,-1.2239999771118164 13.894000053405762,-3.1019999980926514 C13.894000053405762,-3.1019999980926514 -0.5950000286102295,-2.6449999809265137 -2.503999948501587,-14.53600025177002z"></path></g><g opacity="1" transform="matrix(1,0,0,1,14.144000053405762,29.320999145507812)"><path fill="rgb(255,255,255)" fill-opacity="1" d=" M-2.503999948501587,-14.53600025177002 C-2.503999948501587,-14.53600025177002 -3.253999948501587,-3.009000062942505 -13.894000053405762,-0.23899999260902405 C-13.894000053405762,-0.23899999260902405 -2.115000009536743,0.25600001215934753 -0.1809999942779541,14.53600025177002 C-0.1809999942779541,14.53600025177002 1.0010000467300415,-1.2239999771118164 13.894000053405762,-3.1010000705718994 C13.894000053405762,-3.1010000705718994 -0.5950000286102295,-2.6440000534057617 -2.503999948501587,-14.53600025177002z"></path></g><g opacity="1" transform="matrix(0.08032400161027908,0,0,0.08032400161027908,76.19300079345703,73.78299713134766)"><path fill="rgb(255,255,255)" fill-opacity="1" d=" M-1.9670000076293945,-11.418000221252441 C-1.9670000076293945,-11.418000221252441 -2.555999994277954,-2.364000082015991 -10.913999557495117,-0.1889999955892563 C-10.913999557495117,-0.1889999955892563 -1.6610000133514404,0.20000000298023224 -0.1420000046491623,11.418000221252441 C-0.1420000046491623,11.418000221252441 0.7860000133514404,-0.9620000123977661 10.913999557495117,-2.437000036239624 C10.913999557495117,-2.437000036239624 -0.46700000762939453,-2.0769999027252197 -1.9670000076293945,-11.418000221252441z"></path></g></g><g transform="matrix(1,0,0,1,258.947021484375,503.67999267578125)" opacity="0.6" style="display: block;"><g opacity="1" transform="matrix(0.9609925746917725,0,0,1,84.86499786376953,13.371999740600586)"><path fill="rgb(117,75,40)" fill-opacity="1" d=" M84.86499786376953,0 C84.86499786376953,7.385000228881836 46.869998931884766,13.373000144958496 0,13.373000144958496 C-46.86899948120117,13.373000144958496 -84.86399841308594,7.385000228881836 -84.86399841308594,0 C-84.86399841308594,-7.385000228881836 -46.86899948120117,-13.373000144958496 0,-13.373000144958496 C46.869998931884766,-13.373000144958496 84.86499786376953,-7.385000228881836 84.86499786376953,0z"></path></g></g><g transform="matrix(0.9998908042907715,-0.01477892603725195,0.01477892603725195,0.9998908042907715,220.44107055664062,229.74855041503906)" opacity="1" style="display: block;"><g opacity="1" transform="matrix(1,0,0,1,149.8679962158203,155.05599975585938)"><path fill="rgb(249,99,41)" fill-opacity="1" d=" M128.55499267578125,-12.928000450134277 C135.69500732421875,58.07099914550781 83.927001953125,121.41500091552734 12.928000450134277,128.55499267578125 C-58.071998596191406,135.69500732421875 -121.41600036621094,83.927001953125 -128.55599975585938,12.927000045776367 C-135.69500732421875,-58.071998596191406 -83.927001953125,-121.41600036621094 -12.928000450134277,-128.55499267578125 C58.07099914550781,-135.6959991455078 121.41500091552734,-83.927001953125 128.55499267578125,-12.928000450134277z"></path></g><g opacity="1" transform="matrix(1,0,0,1,149.8679962158203,155.05599975585938)"><path stroke-linecap="round" stroke-linejoin="round" fill-opacity="0" stroke="rgb(0,0,0)" stroke-opacity="1" stroke-width="5.669" d=" M128.55499267578125,-12.928000450134277 C135.69500732421875,58.07099914550781 83.927001953125,121.41500091552734 12.928000450134277,128.55499267578125 C-58.071998596191406,135.69500732421875 -121.41600036621094,83.927001953125 -128.55599975585938,12.927000045776367 C-135.69500732421875,-58.071998596191406 -83.927001953125,-121.41600036621094 -12.928000450134277,-128.55499267578125 C58.07099914550781,-135.6959991455078 121.41500091552734,-83.927001953125 128.55499267578125,-12.928000450134277z"></path></g><g opacity="1" transform="matrix(1,0,0,1,232.53700256347656,165.63999938964844)"><path stroke-linecap="round" stroke-linejoin="round" fill-opacity="0" stroke="rgb(0,0,0)" stroke-opacity="1" stroke-width="5.669" d=" M-10.821999549865723,-117.97200012207031 C-10.821999549865723,-117.97200012207031 69.74199676513672,28.926000595092773 -69.74199676513672,117.97200012207031"></path></g><g opacity="1" transform="matrix(1,0,0,1,150.1540069580078,130.5570068359375)"><path stroke-linecap="round" stroke-linejoin="round" fill-opacity="0" stroke="rgb(0,0,0)" stroke-opacity="1" stroke-width="5.669" d=" M-127.85900115966797,3.88100004196167 C-127.85900115966797,3.88100004196167 60.823001861572266,-41.20199966430664 127.85800170898438,41.20100021362305"></path></g><g opacity="1" transform="matrix(1,0,0,1,158.5030059814453,207.20599365234375)"><path stroke-linecap="round" stroke-linejoin="round" fill-opacity="0" stroke="rgb(0,0,0)" stroke-opacity="1" stroke-width="5.669" d=" M-112.54399871826172,24.658000946044922 C-112.54399871826172,24.658000946044922 -56.909000396728516,38.18899917602539 -3.3919999599456787,0.0010000000474974513 C50.125999450683594,-38.1879997253418 112.54399871826172,-20.08099937438965 90.0009994506836,31.290000915527344"></path></g><g opacity="1" transform="matrix(1,0,0,1,182.5800018310547,63.82500076293945)"><path stroke-linecap="round" stroke-linejoin="round" fill-opacity="0" stroke="rgb(0,0,0)" stroke-opacity="1" stroke-width="5.669" d=" M-84.8219985961914,-27.025999069213867 C-84.8219985961914,-27.025999069213867 -30.96299934387207,-49.652000427246094 14.539999961853027,7.932000160217285 C44.459999084472656,45.79399871826172 84.822998046875,49.652000427246094 82.97599792480469,33.64500045776367"></path></g></g><g transform="matrix(1,0,0,1,766.238037109375,513.5459594726562)" opacity="1" style="display: block;"><g opacity="1" transform="matrix(1,0,0,1,5.089000225067139,5.64900016784668)"><path fill="rgb(237,56,78)" fill-opacity="1" d=" M4.839000225067139,1.0119999647140503 C4.839000225067139,3.684999942779541 2.6730000972747803,5.3979997634887695 0,4.839000225067139 C-2.6730000972747803,4.28000020980835 -4.839000225067139,1.659999966621399 -4.839000225067139,-1.0119999647140503 C-4.839000225067139,-3.684999942779541 -2.6730000972747803,-5.39900016784668 0,-4.840000152587891 C2.6730000972747803,-4.28000020980835 4.839000225067139,-1.6610000133514404 4.839000225067139,1.0119999647140503z"></path></g></g><g transform="matrix(1,0,0,1,73.5,668)" opacity="1" style="display: block;"><g opacity="1" transform="matrix(0.9321296215057373,0,0,0.9321296215057373,20.117000579833984,11.630000114440918)"><path fill="rgb(237,56,78)" fill-opacity="1" d=" M-15.32699966430664,8.23900032043457 C-15.32699966430664,8.23900032043457 -16.326000213623047,7.609000205993652 -16.326000213623047,7.609000205993652 C-20.513999938964844,4.9670000076293945 -21.36199951171875,1.4290000200271606 -18.219999313354492,-0.28999999165534973 C-18.219999313354492,-0.28999999165534973 0.8090000152587891,-10.704000473022461 0.8090000152587891,-10.704000473022461 C3.9509999752044678,-12.423999786376953 9.892999649047852,-11.675999641418457 14.081999778747559,-9.032999992370605 C14.081999778747559,-9.032999992370605 15.079999923706055,-8.404000282287598 15.079999923706055,-8.404000282287598 C19.26799964904785,-5.761000156402588 20.117000579833984,-2.2239999771118164 16.975000381469727,-0.5049999952316284 C16.975000381469727,-0.5049999952316284 -2.053999900817871,9.90999984741211 -2.053999900817871,9.90999984741211 C-5.196000099182129,11.630000114440918 -11.138999938964844,10.881999969482422 -15.32699966430664,8.23900032043457z"></path></g><g opacity="1" transform="matrix(0.9321296215057373,0,0,0.9321296215057373,44.59400177001953,24.391000747680664)"><path fill="rgb(237,56,78)" fill-opacity="1" d=" M-14.704000473022461,8.63599967956543 C-14.704000473022461,8.63599967956543 -15.704000473022461,8.005999565124512 -15.704000473022461,8.005999565124512 C-19.892000198364258,5.363999843597412 -20.739999771118164,1.8270000219345093 -17.597999572753906,0.1080000028014183 C-17.597999572753906,0.1080000028014183 1.4320000410079956,-10.307000160217285 1.4320000410079956,-10.307000160217285 C4.573999881744385,-12.027000427246094 10.515000343322754,-11.279000282287598 14.704000473022461,-8.63599967956543 C14.704000473022461,-8.63599967956543 15.70199966430664,-8.006999969482422 15.70199966430664,-8.006999969482422 C19.889999389648438,-5.363999843597412 20.739999771118164,-1.8270000219345093 17.597999572753906,-0.10700000077486038 C17.597999572753906,-0.10700000077486038 -1.4320000410079956,10.307000160217285 -1.4320000410079956,10.307000160217285 C-4.573999881744385,12.027000427246094 -10.515999794006348,11.279000282287598 -14.704000473022461,8.63599967956543z"></path></g><g opacity="1" transform="matrix(1,0,0,1,256.33599853515625,141.80799865722656)"><path fill="rgb(255,255,255)" fill-opacity="1" d=" M165.1909942626953,103.01300048828125 C163.55599975585938,103.01300048828125 161.89700317382812,102.60399627685547 160.3719940185547,101.74199676513672 C160.3719940185547,101.74199676513672 -170.02499389648438,-84.92400360107422 -170.02499389648438,-84.92400360107422 C-174.74400329589844,-87.58999633789062 -176.40899658203125,-93.5770034790039 -173.7429962158203,-98.2959976196289 C-171.07699584960938,-103.01399993896484 -160.3040008544922,-102.33799743652344 -155.58599853515625,-99.6709976196289 C-155.58599853515625,-99.6709976196289 170.02699279785156,84.65399932861328 170.02699279785156,84.65399932861328 C174.74600219726562,87.31999969482422 176.40899658203125,93.30599975585938 173.7429962158203,98.0250015258789 C171.93899536132812,101.21900177001953 168.61500549316406,103.01300048828125 165.1909942626953,103.01300048828125z"></path><path stroke-linecap="round" stroke-linejoin="round" fill-opacity="0" stroke="rgb(0,0,0)" stroke-opacity="1" stroke-width="5.669" d=" M165.1909942626953,103.01300048828125 C163.55599975585938,103.01300048828125 161.89700317382812,102.60399627685547 160.3719940185547,101.74199676513672 C160.3719940185547,101.74199676513672 -170.02499389648438,-84.92400360107422 -170.02499389648438,-84.92400360107422 C-174.74400329589844,-87.58999633789062 -176.40899658203125,-93.5770034790039 -173.7429962158203,-98.2959976196289 C-171.07699584960938,-103.01399993896484 -160.3040008544922,-102.33799743652344 -155.58599853515625,-99.6709976196289 C-155.58599853515625,-99.6709976196289 170.02699279785156,84.65399932861328 170.02699279785156,84.65399932861328 C174.74600219726562,87.31999969482422 176.40899658203125,93.30599975585938 173.7429962158203,98.0250015258789 C171.93899536132812,101.21900177001953 168.61500549316406,103.01300048828125 165.1909942626953,103.01300048828125z"></path></g><g opacity="1" transform="matrix(1,0,0,1,191.20700073242188,105.45700073242188)"><path stroke-linecap="round" stroke-linejoin="round" fill-opacity="0" stroke="rgb(34,31,31)" stroke-opacity="1" stroke-width="18" d=" M-101.96700286865234,-57.292999267578125 C-101.96700286865234,-57.292999267578125 -76.36199951171875,-42.90599822998047 -43.297000885009766,-24.32699966430664"></path></g></g></g></svg>