<svg xmlns="http://www.w3.org/2000/svg" width="28" height="28" id="football"><path d="M14 0A14 14 0 0 0 0 14a14 14 0 0 0 14 14 14 14 0 0 0 14-14A14 14 0 0 0 14 0zm0 6.5c3.993 0 7.128 3.162 7.398 7h.102v.5c0 3.652-2.624 6.656-6.008 7.35A7.41 7.41 0 0 1 14 21.5c-4.08 0-7.5-3.42-7.5-7.5 0-4.072 3.326-7.5 7.5-7.5zm0 1c-.491 0-.967.059-1.426.162l1.227.938 1.428-.979A6.494 6.494 0 0 0 14 7.5zm2.406.467L14.4 9.4l.1 2.2 2 1.5 1.7-.7.878-2.441a6.524 6.524 0 0 0-2.672-1.992zm-4.943.049a6.535 6.535 0 0 0-2.697 2.154l.834 2.129 2 .601 1.9-1.3-.1-2.2-1.937-1.384zm8.303 3.002-.567 1.482 1.276 1.008a6.451 6.451 0 0 0-.71-2.49zm-11.63.205a6.442 6.442 0 0 0-.603 2.123c-.01.108-.012.218-.017.328l1.183-.975-.562-1.476zM14 12.4l-1.8 1.3.7 2H15l.7-2-1.7-1.3zm4.6.8-1.8.7-.8 2.3.7 1.4 2.493.289c.685-.91 1.143-2.001 1.27-3.2L18.6 13.2zm-9.1.2-1.918 1.553c.155.997.542 1.93 1.11 2.735L10.8 17.6 12 16.1l-.7-2.2-1.8-.5zm3.4 3.399-1.1 1.3.74 2.221c.471.114.959.18 1.46.18.354 0 .7-.036 1.041-.092L16 18.2l-.8-1.4h-2.3zm4 1.8-.601 1.47a6.545 6.545 0 0 0 2.137-1.337L16.9 18.6zm-6 .1-1.255.067a6.668 6.668 0 0 0 1.697 1.136L10.9 18.7z"></path></svg>